<svg xmlns="http://www.w3.org/2000/svg" viewBox="0 0 16 16" fill="none">
  <path
    fill="#666"
    fill-rule="evenodd"
    clip-rule="evenodd"
    d="M13.75 12.5h-1.36a9.16 9.16 0 0 0 .33-2.5c0-.866-.07-1.698-.208-2.5h1.238a6 6 0 0 1 .477 2.5 6 6 0 0 1-.477 2.5m-.932-7.5h-1.012a7.97 7.97 0 0 0-1.47-2.691 6.02 6.02 0 0 1 2.482 2.691M10.22 5c-.228-1.23-.608-2.207-1.05-2.947-.396-.654-.676-.781-.812-.781s-.416.127-.812.781C6.132 4.034 6 6.554 6 8s.132 3.966 1.546 5.947c.396.654.676.781.812.781s.416-.127.812-.781c.442-.74.822-1.717 1.05-2.947H7.115A9.02 9.02 0 0 1 7 8c0-.876.068-1.708.192-2.5zm-4.407 0H1.75a5.98 5.98 0 0 0-.477 2.5 6 6 0 0 0 .477 2.5h4.063c-.106-.794-.163-1.626-.163-2.5 0-.874.057-1.706.163-2.5m.494-3.691A7.97 7.97 0 0 0 4.019 5H3.012a6.02 6.02 0 0 1 2.482-2.691M2.25 3.5h1.36c.21-.966.53-1.848.931-2.5C3.15 1.656 2.377 2.508 1.87 3.5m-1.238 4.5h2.07a14.42 14.42 0 0 0-.182 2.5c0 .866.062 1.698.182 2.5h-2.07A5.99 5.99 0 0 1 0 8a5.99 5.99 0 0 1 .632-2.5M13.75 3.5h-1.36c-.21-.966-.53-1.848-.931-2.5 1.391.156 2.164 1.008 2.671 2m1.238 4.5h-2.07c.12.802.182 1.634.182 2.5 0 .866-.062 1.698-.182 2.5h2.07c.39-.743.632-1.59.632-2.5a5.99 5.99 0 0 0-.632-2.5M11.981 5a7.97 7.97 0 0 0-1.288-2.691A6.02 6.02 0 0 1 13.175 5zm-2.26 8.947C9.45 12.966 9.862 11.566 9.97 10h2.283a6.02 6.02 0 0 1-2.532 3.947m-5.4 0A6.02 6.02 0 0 1 1.737 10H4.03c.108 1.566.519 2.966 1.691 3.947M6.78 11h2.44c-.217.906-.502 1.599-.757 2.053-.304.544-.416.597-.503.597s-.199-.053-.503-.597c-.255-.454-.54-1.147-.757-2.053"
  />
</svg>
