<svg xmlns="http://www.w3.org/2000/svg" viewBox="0 0 394 80" fill="none">
  <path
    fill="#fff"
    d="M262.684 0h68.86v12.192h-27.036v66.144h-14.79V12.192h-27.034zm-53.46 66.144h40.974v12.192h-55.766V0h54.493v12.192h-39.701v20.544h34.956v12.192h-34.956zm144.05-53.952V0h-54.339v12.192h39.55v20.544h-34.956v12.192h34.956v21.216h-40.893v12.192h55.702V12.192zm42.45 12.336a22.957 22.957 0 0 0-8.153-6.248 25.002 25.002 0 0 0-10.901-2.353 26.64 26.64 0 0 0-13.992 3.574 25.361 25.361 0 0 0-9.597 9.87 29.952 29.952 0 0 0-3.497 14.54v.29c0 5.16.663 9.864 1.99 14.112a27.837 27.837 0 0 0 5.859 10.24 26.38 26.38 0 0 0 9.6 6.6 31.429 31.429 0 0 0 12.459 2.358 29.37 29.37 0 0 0 13.255-3.02 23.276 23.276 0 0 0 9.233-8.491 25.377 25.377 0 0 0 3.37-13.214v-.288c0-4.224-.68-8.45-2.035-12.679-1.355-4.23-3.396-7.674-6.124-10.332m-10.874 39.002a17.22 17.22 0 0 1-6.63 1.176c-4.757 0-8.583-1.155-11.475-3.466a15.93 15.93 0 0 1-5.767-9.088 25.456 25.456 0 0 1-.79-6.288v-.29c0-5.076 1.238-9.35 3.712-12.82 2.474-3.47 6.12-5.206 10.938-5.206a14.906 14.906 0 0 1 7.14 1.588c2.256 1.054 4.19 2.625 5.8 4.712 1.535 2.002 2.678 4.383 3.428 7.141.75 2.758 1.125 5.874 1.125 9.35 0 3.957-.559 7.463-1.676 10.519-1.118 3.056-2.826 5.312-5.123 6.768m-105.551-47.726 43.508 63.125h-15.936l-43.42-63.125zm-15.647 63.125L231.579 40.4l-40.592-59.92h15.936l15.76 23.68 15.938-23.68h15.584l-23.78 34.94 41.956 61.108H257.37l-26.066-38.648-26.24 38.648z"
  />
  <path fill="#fff" d="M8.988 0v12.192h20.704v54.097h14.79V12.192h20.704V0z" />
  <path
    fill="#fff"
    d="m111.191 0-24.344 33.841L62.318 0H46.86v78.336h14.364V25.011l20.276 28.325h.374l20.278-28.325v53.325h14.364V0z"
  />
  <path
    fill="#fff"
    d="M152.908 79.21c-4.832 0-9.245-.8-13.238-2.4-3.995-1.6-7.433-3.922-10.316-6.966-2.884-3.045-5.121-6.684-6.71-10.92-1.588-4.237-2.382-8.916-2.382-14.039v-.289c0-5.078.812-9.727 2.438-13.947a34.486 34.486 0 0 1 6.928-10.972c3.035-3.17 6.557-5.63 10.565-7.38 4.009-1.75 8.337-2.625 12.986-2.625 3.672 0 7.032.488 10.082 1.465 3.05.977 5.83 2.358 8.339 4.141 2.51 1.784 4.71 3.929 6.601 6.436 1.892 2.508 3.42 5.312 4.584 8.414l-13.41 5.723c-.956-2.837-2.468-5.214-4.533-7.131-2.065-1.917-4.765-2.875-8.1-2.875-2.09 0-4.047.44-5.872 1.318a11.58 11.58 0 0 0-4.348 3.822c-1.21 1.6-2.153 3.55-2.83 5.851-.678 2.301-1.016 4.86-1.016 7.678 0 2.901.338 5.52 1.016 7.858.676 2.336 1.684 4.33 3.022 5.978a12.69 12.69 0 0 0 4.644 3.63c1.834.839 3.853 1.258 6.057 1.258 3.483 0 6.358-.85 8.625-2.55 2.266-1.7 3.854-4.144 4.766-7.333l13.41 5.537c-2.02 6.033-5.49 10.8-10.409 14.299-4.918 3.5-10.893 5.25-17.923 5.25"
  />
</svg>
