<svg xmlns="http://www.w3.org/2000/svg" viewBox="0 0 283 64" fill="none">
  <path fill="#fff" d="M141.04 16 80 112h122.08zm69.94 50.88c10.84 0 19.29-5.28 22.64-13.44h-11.84c-1.72 3.44-6.02 5.6-10.8 5.6-6.4 0-11.25-3.52-11.8-8.96h35.28c.16-1.12.24-2.24.24-3.44 0-12.48-9.28-21.92-23.6-21.92-13.84 0-23.6 9.28-23.6 21.92 0 12.48 9.76 21.92 23.68 21.92m-.16-34.4c5.84 0 10.24 3.2 11.2 8.32h-22.32c1.04-4.88 5.28-8.32 11.12-8.32m-61.37 34.4c6.96 0 12.16-2.8 15.2-7.2v5.92h10.56V36.16c0-11.28-8.64-19.2-21.44-19.2-12.24 0-21.84 8-22.16 18.72h10.32c.56-5.28 5.52-8.96 11.76-8.96 6.96 0 11.52 3.52 11.52 9.44v3.2l-15.2 1.12c-12.72.96-19.76 6.08-19.76 15.2 0 9.12 7.44 15.2 19.2 15.2m2.32-8.72c-5.76 0-9.6-2.56-9.6-6.72 0-3.84 2.88-6.08 9.76-6.56l13.76-.96v3.52c0 6.24-5.84 10.72-13.92 10.72m-46.5 8.72c7.04 0 12.4-3.04 15.2-8.32v7.04h10.64V18.56h-10.64V40c0 7.2-4.64 11.84-11.68 11.84-7.2 0-11.92-4.72-11.92-12.24V18.56H75.32V41.6c0 12.16 8.72 21.28 21.92 21.28M24 64h11.44V27.68h16.8V18.56H7.2v9.12H24z" />
</svg>
