<svg xmlns="http://www.w3.org/2000/svg" viewBox="0 0 64 64" fill="none">
  <defs>
    <linearGradient id="gradient" x1="8" y1="6" x2="56" y2="58" gradientUnits="userSpaceOnUse">
      <stop offset="0" stop-color="#9333EA" />
      <stop offset="1" stop-color="#F472B6" />
    </linearGradient>
  </defs>
  <rect width="64" height="64" rx="14" fill="#0F172A" />
  <path
    d="M32 48c11.2-7.6 18-15 18-23 0-6.2-4.6-11-10.4-11-4 0-7.5 2.4-9.1 6-1.6-3.6-5-6-9.1-6C15.6 14 11 18.8 11 25c0 8 6.8 15.4 18 23z"
    fill="url(#gradient)"
  />
  <path
    d="M23 34.5c2 2.3 5 4.6 9 7 4-2.4 7-4.7 9-7 2-2.4 3-4.8 3-7.5 0-3.8-2.8-6.5-6.2-6.5-2.5 0-4.7 1.6-5.8 4l-.8 1.8-.8-1.8c-1.1-2.4-3.3-4-5.8-4-3.4 0-6.2 2.7-6.2 6.5 0 2.7 1 5.1 3 7.5z"
    fill="#F8FAFC"
    fill-opacity="0.85"
  />
</svg>
